<svg width="26" height="26" viewBox="0 0 26 26" fill="none" xmlns="http://www.w3.org/2000/svg">
<circle cx="13" cy="13" r="13" fill="#F26637"/>
<path fill-rule="evenodd" clip-rule="evenodd" d="M9.61837 14.7842C9.56412 14.7834 9.51025 14.7943 9.45991 14.8163C9.40956 14.8383 9.36374 14.871 9.32511 14.9124C9.28647 14.9539 9.25579 15.0032 9.23485 15.0577C9.21391 15.1121 9.20312 15.1706 9.20312 15.2296C9.20312 15.2886 9.21391 15.347 9.23485 15.4015C9.25579 15.4559 9.28647 15.5053 9.32511 15.5467C9.36374 15.5882 9.40956 15.6209 9.45991 15.6429C9.51025 15.6649 9.56412 15.6758 9.61837 15.6749H16.3795C16.4338 15.6758 16.4877 15.6649 16.538 15.6429C16.5884 15.6209 16.6342 15.5882 16.6728 15.5467C16.7114 15.5053 16.7421 15.4559 16.7631 15.4015C16.784 15.347 16.7948 15.2886 16.7948 15.2296C16.7948 15.1706 16.784 15.1121 16.7631 15.0577C16.7421 15.0032 16.7114 14.9539 16.6728 14.9124C16.6342 14.871 16.5884 14.8383 16.538 14.8163C16.4877 14.7943 16.4338 14.7834 16.3795 14.7842H9.61837Z" fill="white"/>
<path fill-rule="evenodd" clip-rule="evenodd" d="M9.61837 12.8799C9.56412 12.8791 9.51025 12.89 9.45991 12.912C9.40956 12.934 9.36374 12.9667 9.32511 13.0081C9.28647 13.0496 9.25579 13.0989 9.23485 13.1534C9.21391 13.2078 9.20312 13.2663 9.20312 13.3253C9.20312 13.3843 9.21391 13.4427 9.23485 13.4972C9.25579 13.5516 9.28647 13.601 9.32511 13.6425C9.36374 13.6839 9.40956 13.7166 9.45991 13.7386C9.51025 13.7606 9.56412 13.7715 9.61837 13.7706H16.3795C16.4338 13.7715 16.4877 13.7606 16.538 13.7386C16.5884 13.7166 16.6342 13.6839 16.6728 13.6425C16.7114 13.601 16.7421 13.5516 16.7631 13.4972C16.784 13.4427 16.7948 13.3843 16.7948 13.3253C16.7948 13.2663 16.784 13.2078 16.7631 13.1534C16.7421 13.0989 16.7114 13.0496 16.6728 13.0081C16.6342 12.9667 16.5884 12.934 16.538 12.912C16.4877 12.89 16.4338 12.8791 16.3795 12.8799H9.61837Z" fill="white"/>
<path fill-rule="evenodd" clip-rule="evenodd" d="M7.54718 5.82822C7.49119 5.84613 7.43881 5.87724 7.39469 5.91878C7.35058 5.96033 7.31478 6.01227 7.29046 6.06997L6.15241 8.77107C5.82864 8.6425 5.4988 8.52945 5.13419 8.5603C4.886 8.5813 4.6152 8.7051 4.42558 8.93614C4.24247 9.15926 4.13076 9.45083 4.05819 9.81551C3.94742 10.1423 4.00441 10.5046 4.14808 10.7493C4.2986 11.0057 4.50707 11.1695 4.70807 11.2976C4.82899 11.3747 4.95133 11.4386 5.06357 11.4906C4.94005 11.7981 4.81816 12.1497 4.70777 12.4768C4.53368 12.9925 4.39993 13.431 4.39993 13.431C4.38384 13.4838 4.37692 13.5398 4.37964 13.5952C4.41677 14.3475 4.3805 15.594 4.49135 16.4184V19.4118C4.49135 19.4701 4.50201 19.5284 4.52253 19.5822C4.54304 19.6361 4.57338 19.6855 4.61127 19.7267C4.64918 19.7679 4.69458 19.801 4.7441 19.8233C4.7936 19.8456 4.84717 19.8571 4.90076 19.8571H7.24876C7.30235 19.8571 7.35592 19.8456 7.40542 19.8233C7.45494 19.801 7.50034 19.7679 7.53825 19.7267C7.57615 19.6855 7.60648 19.6361 7.627 19.5822C7.64751 19.5284 7.65817 19.4701 7.65817 19.4118V18.0557C9.21008 18.2724 11.1544 18.3362 12.9969 18.3252C12.9984 18.3252 13 18.3252 13.0015 18.3252C14.8447 18.3361 16.7887 18.2723 18.3403 18.0558V19.4118C18.3403 19.4701 18.3509 19.5284 18.3714 19.5822C18.3919 19.6361 18.4223 19.6855 18.4602 19.7267C18.4981 19.7679 18.5435 19.801 18.593 19.8233C18.6425 19.8456 18.6961 19.8571 18.7497 19.8571H21.0977C21.1513 19.8571 21.2048 19.8456 21.2543 19.8233C21.3038 19.801 21.3492 19.7679 21.3872 19.7267C21.4251 19.6855 21.4554 19.6361 21.4759 19.5822C21.4964 19.5284 21.5071 19.4701 21.5071 19.4118V16.4191C21.6202 15.5934 21.5836 14.3473 21.6188 13.594C21.6214 13.5391 21.6145 13.4837 21.5987 13.4315C21.5987 13.4315 21.4653 12.9928 21.2915 12.477C21.1812 12.1497 21.0595 11.7981 20.9356 11.4903C21.0476 11.4383 21.1697 11.3745 21.2905 11.2977C21.4915 11.1696 21.7001 11.0059 21.8509 10.7499C21.9949 10.5054 22.0527 10.1431 21.9424 9.81595C21.8698 9.45106 21.7581 9.15935 21.5749 8.93614C21.3853 8.7051 21.1144 8.5813 20.8663 8.5603C20.5017 8.52945 20.1719 8.6425 19.8481 8.77107L18.7101 6.06997C18.6857 6.01226 18.6499 5.96033 18.6058 5.91878C18.5617 5.87724 18.5093 5.84612 18.4533 5.82822C14.6079 4.89783 11.8239 4.56267 7.54718 5.82822ZM18.0453 6.63001L19.2613 9.51628C19.2823 9.56616 19.3119 9.61175 19.348 9.64998C19.3842 9.68824 19.4269 9.71912 19.4733 9.74058C19.5197 9.76196 19.5698 9.77407 19.6202 9.77588C19.6706 9.7781 19.7212 9.7692 19.7688 9.75107C20.2316 9.57476 20.6305 9.43381 20.8028 9.44837C20.8889 9.45572 20.9119 9.46573 20.9642 9.52937C21.0164 9.59306 21.0933 9.74455 21.1479 10.0336C21.1534 10.0626 21.1615 10.091 21.1722 10.1182C21.2082 10.2105 21.2009 10.2023 21.1614 10.2694C21.1219 10.3364 21.0136 10.4418 20.8767 10.529C20.6029 10.7033 20.2626 10.805 20.2626 10.805C20.2019 10.8222 20.145 10.8548 20.0976 10.8994C20.0503 10.944 20.0125 11.0006 19.9882 11.0634C19.9639 11.1263 19.9531 11.1952 19.9569 11.2633C19.9608 11.3313 19.9792 11.3983 20.0103 11.4575C20.134 11.6923 20.3539 12.2828 20.5227 12.7836C20.6488 13.1577 20.7529 13.4897 20.7976 13.6342C20.7639 14.4623 20.7824 15.6686 20.6962 16.2952C20.6943 16.305 20.693 16.315 20.6918 16.3248C20.687 16.3477 20.6701 16.3888 20.5916 16.4598C20.5046 16.5384 20.3491 16.6346 20.1385 16.7229C19.7175 16.8995 19.0842 17.0492 18.3347 17.1584C16.8358 17.3767 14.8657 17.4457 13.0015 17.4345C13 17.4345 12.9985 17.4345 12.9969 17.4345C11.1338 17.4459 9.16361 17.3767 7.66444 17.1584C6.91484 17.0492 6.28139 16.8995 5.86013 16.7228C5.6495 16.6345 5.49386 16.5384 5.40684 16.4597C5.32856 16.3889 5.31149 16.3479 5.30666 16.3251C5.30545 16.3139 5.30387 16.303 5.30191 16.2919C5.21792 15.663 5.23653 14.4612 5.20103 13.6339C5.246 13.4891 5.35028 13.1575 5.47644 12.7838C5.64553 12.2829 5.86524 11.6922 5.98864 11.4564C6.01959 11.3972 6.03783 11.3303 6.04152 11.2623C6.0452 11.1944 6.03431 11.1256 6.00997 11.0629C5.98563 11.0001 5.94788 10.9437 5.90056 10.8992C5.85323 10.8547 5.79638 10.8222 5.73583 10.805C5.73583 10.805 5.39542 10.7034 5.12203 10.5291C4.98535 10.442 4.8773 10.3366 4.83812 10.2699C4.79894 10.2031 4.79155 10.2117 4.82795 10.1191C4.83878 10.0916 4.84703 10.0629 4.85258 10.0336C4.90715 9.74455 4.9841 9.59306 5.03638 9.52937C5.08864 9.46569 5.11157 9.45567 5.19771 9.44837C5.36997 9.43389 5.76891 9.57476 6.23161 9.75107C6.2792 9.76911 6.32989 9.77766 6.38029 9.77588C6.43069 9.77365 6.48078 9.76207 6.52718 9.74058C6.57357 9.7192 6.61629 9.68824 6.65242 9.64998C6.68858 9.61175 6.71816 9.56616 6.73916 9.51628L7.95524 6.62995C11.464 5.72934 14.385 5.58433 18.0453 6.63001ZM5.31018 17.4346C5.39126 17.4769 5.4762 17.5164 5.56555 17.5539C5.92518 17.7047 6.35433 17.8231 6.83934 17.9194V18.9664H5.31018V17.4346ZM20.6882 17.4346V18.9664H19.1591V17.9196C19.6443 17.8232 20.0735 17.7048 20.4332 17.5539C20.5224 17.5165 20.6072 17.4769 20.6882 17.4346Z" fill="white"/>
<path fill-rule="evenodd" clip-rule="evenodd" d="M18.6514 12.4814C17.8823 12.4814 17.25 13.1705 17.25 14.0085C17.25 14.8478 17.8823 15.5377 18.6514 15.5377C19.4218 15.5377 20.0549 14.8478 20.0549 14.0085C20.0549 13.1705 19.4218 12.4814 18.6514 12.4814ZM18.6514 13.3722C18.9792 13.3722 19.2361 13.6517 19.2361 14.0085C19.2361 14.3684 18.9792 14.647 18.6514 14.647C18.3266 14.647 18.0688 14.3684 18.0688 14.0085C18.0688 13.6517 18.3266 13.3722 18.6514 13.3722Z" fill="white"/>
<path fill-rule="evenodd" clip-rule="evenodd" d="M7.35065 12.4814C6.58029 12.4814 5.94922 13.1716 5.94922 14.0085C5.94922 14.8467 6.58029 15.5377 7.35065 15.5377C8.12098 15.5377 8.75416 14.8478 8.75416 14.0085C8.75416 13.1705 8.12098 12.4814 7.35065 12.4814ZM7.35065 13.3722C7.67838 13.3722 7.93533 13.6517 7.93533 14.0085C7.93533 14.3684 7.67838 14.647 7.35065 14.647C7.02289 14.647 6.76805 14.3695 6.76805 14.0085C6.76805 13.6506 7.02289 13.3722 7.35065 13.3722Z" fill="white"/>
</svg>
