<svg width="26" height="26" viewBox="0 0 26 26" fill="none" xmlns="http://www.w3.org/2000/svg">
<circle cx="13" cy="13" r="13" fill="#F46831"/>
<path d="M15.6232 16.1667V18.5C15.6232 18.7733 15.4106 19 15.1542 19H14.3727H9.83952C9.58316 19 9.37057 18.7733 9.37057 18.5V16.1667C9.37057 14.7933 10.4273 13.6667 11.7153 13.6667H13.2785C14.5665 13.6667 15.6232 14.7933 15.6232 16.1667ZM15.6232 16.1667V18M15.6232 16.3333H19.5311C19.7874 16.3333 20 16.1067 20 15.8333V13.5C20 12.1267 18.9433 11 17.6553 11H16.0921C15.4106 11 14.4664 11.3066 14.3664 11.82M10.6273 11.82C10.2022 11.3133 9.58316 11 8.90163 11H7.33848C6.05044 11 5 12.1267 5 13.5V15.8333C5 16.1067 5.20634 16.3333 5.46269 16.3333H9.37057M14.3727 11.6667C14.3727 12.7733 13.5348 13.6667 12.4969 13.6667C11.4589 13.6667 10.6211 12.7733 10.6211 11.6667C10.6211 10.56 11.4589 9.66667 12.4969 9.66667C13.5348 9.66667 14.3727 10.56 14.3727 11.6667ZM16.8737 7C15.8358 7 14.9979 7.89333 14.9979 9C14.9979 10.1067 15.8358 11 16.8737 11C17.9116 11 18.7495 10.1067 18.7495 9C18.7495 7.89333 17.9116 7 16.8737 7ZM6.23802 9C6.23802 10.1067 7.07587 11 8.1138 11C9.15173 11 9.98958 10.1067 9.98958 9C9.98958 7.89333 9.15173 7 8.1138 7C7.07587 7 6.23802 7.89333 6.23802 9Z" stroke="white" stroke-miterlimit="10" stroke-linejoin="round"/>
</svg>
